<svg width="40" height="40" viewBox="0 0 40 40" fill="none" xmlns="http://www.w3.org/2000/svg">
<path d="M35 13.3333C35.8841 13.3333 36.7319 13.6845 37.357 14.3096C37.9821 14.9348 38.3333 15.7826 38.3333 16.6667V23.3333C38.3333 24.2174 37.9821 25.0652 37.357 25.6904C36.7319 26.3155 35.8841 26.6667 35 26.6667H33.23C32.8237 29.8888 31.2554 32.852 28.8196 35C26.3837 37.148 23.2477 38.3333 20 38.3333V35C22.6522 35 25.1957 33.9464 27.0711 32.0711C28.9464 30.1957 30 27.6522 30 25V15C30 12.3478 28.9464 9.80429 27.0711 7.92893C25.1957 6.05357 22.6522 5 20 5C17.3478 5 14.8043 6.05357 12.9289 7.92893C11.0536 9.80429 10 12.3478 10 15V26.6667H5C4.11595 26.6667 3.2681 26.3155 2.64298 25.6904C2.01786 25.0652 1.66667 24.2174 1.66667 23.3333V16.6667C1.66667 15.7826 2.01786 14.9348 2.64298 14.3096C3.2681 13.6845 4.11595 13.3333 5 13.3333H6.77C7.17672 10.1115 8.74514 7.14878 11.181 5.00112C13.6168 2.85346 16.7526 1.66846 20 1.66846C23.2474 1.66846 26.3832 2.85346 28.819 5.00112C31.2549 7.14878 32.8233 10.1115 33.23 13.3333H35ZM12.9333 26.3083L14.7 23.4817C16.2885 24.4767 18.1256 25.003 20 25C21.8744 25.003 23.7115 24.4767 25.3 23.4817L27.0667 26.3083C24.9488 27.6352 22.4992 28.3372 20 28.3333C17.5008 28.3372 15.0512 27.6352 12.9333 26.3083Z" fill="#F9995D"/>
</svg>
